<svg xmlns="http://www.w3.org/2000/svg" viewBox="0 0 240 240" role="img">
  <path d="M96 70h48v22H96zM96 98h48v22H96zM96 126h48v20H96z" fill="#ecfdf5" stroke="#22c55e" stroke-width="5" stroke-linejoin="round"/>
  <path d="M96 81c-15 0-15 28 0 28M144 81c15 0 15 28 0 28M96 109c-15 0-15 27 0 27M144 109c15 0 15 27 0 27" fill="none" stroke="#16a34a" stroke-width="5" stroke-linecap="round"/>
  <rect x="99" y="149" width="42" height="23" rx="7" fill="#cbd5e1"/>
  <rect x="99" y="173" width="42" height="19" rx="6" fill="#64748b"/>
  <path d="M104 194h32l-5 16h-22z" fill="#475569"/>
  <path d="M105 180h30M105 189h30" stroke="#cbd5e1" stroke-width="4" stroke-linecap="round"/>
</svg>
